<?xml version="1.0" encoding="UTF-8" standalone="no"?>
<!DOCTYPE svg PUBLIC "-//W3C//DTD SVG 1.1//EN" "http://www.w3.org/Graphics/SVG/1.1/DTD/svg11.dtd">
<!-- Создано Microsoft Visio, экспорт SVG motor.svg Page-1 -->
<svg xmlns="http://www.w3.org/2000/svg" xmlns:xlink="http://www.w3.org/1999/xlink" xmlns:ev="http://www.w3.org/2001/xml-events"
	xmlns:intmash="http://www.intmash.ru/CityNight" 
		width="1.65354in" height="1.65354in" viewBox="0 0 119.055 119.055" xml:space="preserve" color-interpolation-filters="sRGB"
		class="st6">
	<style type="text/css">
	<![CDATA[
		.st1 {stroke:#000000;stroke-linecap:round;stroke-linejoin:round;stroke-width:0.75}
		.st2 {fill:#92d050;stroke:#000000;stroke-linecap:round;stroke-linejoin:round;stroke-width:0.75}
		.st3 {fill:none;stroke:#000000;stroke-linecap:round;stroke-linejoin:round;stroke-width:0.75}
		.st4 {fill:url(#grad0-36);stroke:#000000;stroke-linecap:round;stroke-linejoin:round;stroke-width:0.75}
		.st5 {fill:#000000;font-family:Calibri;font-size:0.666664em}
		.st6 {fill:none;fill-rule:evenodd;font-size:12px;overflow:visible;stroke-linecap:square;stroke-miterlimit:3}
	]]>
	</style>

	<defs id="Patterns_And_Gradients">
		<linearGradient id="grad0-4" x1="0" y1="0" x2="1" y2="0" gradientTransform="rotate(270 0.5 0.5)">
			<stop offset="0" stop-color="#f0f0f0" stop-opacity="1"/>
			<stop offset="1" stop-color="#ffffff" stop-opacity="1"/>
		</linearGradient>
		<linearGradient id="grad0-36" x1="0" y1="0" x2="1" y2="0" gradientTransform="rotate(270 0.5 0.5)">
			<stop offset="0" stop-color="#b0b0b0" stop-opacity="1"/>
			<stop offset="1" stop-color="#bfbfbf" stop-opacity="1"/>
		</linearGradient>
	</defs>
	<g>
		<title>Page-1</title>
		<g id="shape23-1" transform="translate(158.598,70.8661) rotate(90)">
			<title>Лист.23</title>
			<path d="M0 119.06 L14.17 119.06" class="st1"/>
		</g>
		<g id="shape27-6" transform="translate(155.51,142.938) rotate(123.9)">
			<title>Лист.27</title>
			<path d="M0 119.06 L14.3 119.06" class="st1"/>
		</g>
		<g id="shape28-10" transform="translate(-39.894,43.937) rotate(-90)">
			<title>Лист.28</title>
			<path d="M1.87 119.06 L0 112.39 L1.82 105.3 L0 98.21 L1.82 91.13 L9.11 91.13 L10.93 98.21 L12.76 105.3 L12.76 112.39"
					class="st1"/>
		</g>
		<g id="shape29-13" transform="translate(-73.7664,-18.4908) rotate(-45)">
			<title>Лист.29</title>
			<path d="M0 114.34 A15.7162 13.0481 -55.83 0 0 20.04 114.34" class="st1"/>
		</g>
		<g id="shape30-16" transform="translate(5.20738,-32.6157) rotate(-45)">
			<title>Лист.30</title>
			<rect x="0" y="104.882" width="22.6772" height="14.1732" class="st2"/>
		</g>
		<g id="shape31-18" transform="translate(7.08661,-99.2126)">
			<title>Лист.31</title>
			<rect x="0" y="104.882" width="22.6772" height="14.1732" class="st2"/>
		</g>
		<g id="shape32-20" transform="translate(27.4053,-48.9738) rotate(-30)">
			<title>Лист.32</title>
			<rect x="0" y="104.882" width="22.6772" height="14.1732" class="st2"/>
		</g>
		<g id="shape33-22" transform="translate(53.8537,-58.1743) rotate(-15)">
			<title>Лист.33</title>
			<rect x="0" y="104.882" width="22.6772" height="14.1732" class="st2"/>
		</g>
		<g id="shape34-24" transform="translate(97.367,-17.6861) rotate(15)">
			<title>Лист.34</title>
			<rect x="0" y="104.882" width="22.6772" height="14.1732" class="st2"/>
		</g>
		<g id="shape35-26" transform="translate(31.1811,-48.189)" data-id="MainSwitch">
			<title>Лист.35</title>
			<rect x="0" y="102.047" width="17.0079" height="17.0079" class="st3"/>
		</g>
		<g id="shape36-28" transform="translate(158.74,39.6843) rotate(90)">
			<title>Лист.36</title>
			<path d="M0 119.06 L14.17 119.06" class="st1"/>
		</g>
		<g id="group38-32" transform="translate(25.3701,-5.66929)">
			<title>Лист.38</title>
			<g id="shape24-33">
				<title>Лист.24</title>
				<ellipse cx="14.1732" cy="104.882" rx="14.1732" ry="14.1732" class="st4"/>
			</g>
			<g id="shape26-37" transform="translate(-24.6581,3.77035) rotate(-15)">
				<title>Лист.26</title>
				<desc>СД</desc>
				<ellipse cx="11.3386" cy="107.717" rx="11.3386" ry="11.3386" class="st4"/>
				<text x="6.63" y="110.12" class="st5">СД</text>			</g>
		</g>
	</g>
</svg>
